<svg width="94" height="94" viewBox="0 0 94 94" fill="none" xmlns="http://www.w3.org/2000/svg">
<path d="M93.3389 46.822C93.3389 56.032 90.6689 64.622 86.0489 71.862C85.2289 73.142 84.3489 74.382 83.4189 75.582C80.5389 79.242 77.1289 82.462 73.2989 85.122C72.8789 85.412 72.4489 85.702 72.0189 85.982C69.6689 87.502 67.1689 88.822 64.5489 89.912C63.8589 90.192 63.1689 90.462 62.4689 90.712C57.5489 92.482 52.2489 93.442 46.7189 93.442C46.3589 93.442 45.9889 93.442 45.6189 93.432C40.9989 93.322 36.5389 92.542 32.3389 91.182C26.6089 89.332 21.3689 86.392 16.8589 82.622C16.6589 82.462 16.4489 82.282 16.2489 82.112C14.8689 80.922 13.5689 79.652 12.3389 78.312C12.1789 78.142 12.0289 77.972 11.8789 77.792C4.53891 69.562 0.0888672 58.712 0.0888672 46.822C0.0888672 21.072 20.9689 0.202026 46.7189 0.202026C72.4589 0.202026 93.3389 21.072 93.3389 46.822Z" fill="#E8E1EF"/>
<path d="M32.3389 91.182C26.6089 89.332 21.3689 86.392 16.8589 82.622C16.6589 82.462 16.4489 82.282 16.2489 82.112C14.8689 80.922 13.5689 79.652 12.3389 78.312C12.1789 78.142 12.0289 77.972 11.8789 77.792C16.5789 64.102 24.3889 53.192 33.3889 53.222C44.6189 53.312 38.7689 74.412 32.3389 91.182Z" fill="#40507F"/>
<path d="M52.5919 25.5351C52.5919 25.5351 65.9369 21.9441 75.8629 34.1011C85.7889 46.2571 79.621 61.2221 63.895 60.7921C48.169 60.3621 44.5129 44.2911 44.5129 44.2911L52.5919 25.5351Z" fill="black"/>
<path d="M72.0189 85.982C69.6689 87.502 67.1689 88.822 64.5489 89.912C63.8589 90.192 63.1689 90.462 62.4689 90.712C57.5489 92.482 52.2489 93.442 46.7189 93.442C46.3589 93.442 45.9889 93.442 45.6189 93.432C34.6889 93.182 24.6789 89.162 16.8589 82.622C17.7989 72.122 19.0689 63.682 20.7589 61.252C24.3089 56.142 28.4789 54.262 33.3889 53.222C36.0089 52.682 38.7789 52.392 41.7789 51.962C46.1789 51.352 51.4789 51.482 56.2189 52.022H56.2789C60.9189 52.562 65.0289 53.512 67.2089 54.582C69.0189 55.462 70.7589 69.522 72.0189 85.982Z" fill="#40507F"/>
<path d="M35.421 43.4481C34.863 45.9981 33.3319 47.8291 32.0009 47.5381C30.6699 47.2471 30.0439 44.9441 30.6019 42.3941C31.1599 39.8441 32.6909 38.0131 34.0219 38.3041C35.3529 38.5941 35.979 40.8981 35.421 43.4481Z" fill="#92B4EA"/>
<path d="M83.4189 75.5821C80.5389 79.2421 77.129 82.4621 73.299 85.1221C70.579 87.0121 67.649 88.6221 64.549 89.9121C63.859 90.1921 63.1689 90.4621 62.4689 90.7121L53.8889 52.0221C53.8889 52.0221 54.7389 51.9521 56.2189 52.0221H56.2789C60.9689 52.2821 74.1389 52.1021 83.4189 75.5821Z" fill="#40507F"/>
<path d="M32.5579 35.5401C32.5579 35.5401 28.7639 31.5061 29.7119 25.1231C30.3549 20.7961 32.2469 19.3631 32.2469 19.3631C32.2469 19.3631 29.2099 13.532 37.9199 13.721C46.6299 13.91 53.7659 13.1671 57.6469 20.6591C59.9329 25.0731 59.0229 34.6601 59.0229 34.6601L32.5579 35.5401Z" fill="black"/>
<path d="M51.8009 42.343L51.7389 52.972C51.7389 52.972 49.8039 56.016 43.5829 56.485C38.9489 56.834 37.4958 54.447 37.4958 54.447L38.6719 45.153L49.9139 42.749L51.8009 42.343Z" fill="#F48462"/>
<path d="M51.7889 41.6951C51.7599 41.9851 51.6479 42.3271 51.4739 42.7191C49.0649 48.0151 40.6819 50.1751 38.0049 50.3991L38.6719 45.1531L51.7889 41.6951Z" fill="black"/>
<path d="M36.4437 20.912C36.4437 20.912 30.7877 34.206 32.9437 41.623C35.0997 49.04 41.8638 47.804 45.9048 46.327C49.9448 44.85 51.8027 42.346 51.8027 42.346C51.8027 42.346 55.6017 43.593 58.1007 40.047C60.5997 36.501 59.0007 32.472 56.8297 31.566C54.6587 30.66 52.1017 32.246 52.1017 32.246L54.0797 28.379C54.0797 28.379 45.4127 8.90998 36.4437 20.912Z" fill="#F48462"/>
<path d="M52.1018 32.246C52.1018 32.246 46.4319 33.504 42.3559 27.246C38.2799 20.988 38.5929 18.38 38.5929 18.38L34.7788 24.995C34.7788 24.995 33.8108 20.478 35.5688 17.553C37.3268 14.628 39.2209 15.191 39.2209 15.191L51.8308 18.085L55.3288 28.081L52.1018 32.246Z" fill="black"/>
<path d="M37.2108 37.805C37.0008 37.805 36.8048 37.671 36.7348 37.461C35.8008 34.608 37.7688 31.667 37.8538 31.543C38.0088 31.316 38.3198 31.257 38.5468 31.411C38.7758 31.566 38.8348 31.877 38.6808 32.105C38.6628 32.131 36.9058 34.77 37.6858 37.15C37.7718 37.413 37.6278 37.695 37.3658 37.781C37.3148 37.797 37.2628 37.805 37.2108 37.805Z" fill="black"/>
<path d="M52.7599 38.5231C52.6399 38.5231 52.5189 38.4801 52.4229 38.3921C52.2189 38.2061 52.2039 37.8901 52.3909 37.6851L55.9239 33.8161C56.1109 33.6121 56.4269 33.5981 56.6299 33.7841C56.8339 33.9701 56.8489 34.2871 56.6619 34.4911L53.129 38.3601C53.03 38.4691 52.8959 38.5231 52.7599 38.5231Z" fill="black"/>
<path d="M56.5497 37.4401C56.5277 37.4401 56.5047 37.4391 56.4827 37.4361L53.9897 37.1001C53.7157 37.0631 53.5237 36.8111 53.5607 36.5371C53.5967 36.2631 53.8527 36.0711 54.1227 36.1081L56.6158 36.4441C56.8898 36.4811 57.0817 36.7331 57.0447 37.0071C57.0107 37.2581 56.7957 37.4401 56.5497 37.4401Z" fill="black"/>
<path d="M34.4529 27.0141C34.2189 27.0141 34.0099 26.8481 33.9629 26.6091C33.9109 26.3381 34.0879 26.0751 34.3589 26.0231L36.7019 25.5691C36.9609 25.5161 37.2339 25.6931 37.2879 25.9641C37.3399 26.2351 37.1629 26.4981 36.8909 26.5501L34.5479 27.0041C34.5179 27.0111 34.4849 27.0141 34.4529 27.0141Z" fill="black"/>
<path d="M44.2539 28.3691C44.1809 28.3691 44.1059 28.3531 44.0369 28.3191L40.1439 26.4411C39.8949 26.3211 39.7899 26.0221 39.9109 25.7731C40.0309 25.5231 40.3329 25.4211 40.5779 25.5401L44.4709 27.4181C44.7199 27.5381 44.8249 27.8371 44.7039 28.0851C44.6179 28.2651 44.4399 28.3691 44.2539 28.3691Z" fill="black"/>
<path d="M34.5589 32.447C34.5139 32.447 34.4669 32.441 34.4209 32.428C34.1549 32.352 34.0019 32.075 34.0779 31.809L34.6909 29.663L34.1139 28.983C33.9349 28.773 33.9609 28.457 34.1709 28.278C34.3839 28.099 34.6979 28.126 34.8759 28.335L35.6269 29.219C35.7349 29.347 35.7729 29.519 35.7269 29.68L35.0389 32.083C34.9769 32.304 34.7759 32.447 34.5589 32.447Z" fill="black"/>
<path d="M41.2568 32.9601C41.2118 32.9601 41.1648 32.9541 41.1188 32.9401C40.8528 32.8641 40.6998 32.5871 40.7758 32.3221L41.3878 30.1831L40.5338 29.2251C40.3498 29.0191 40.3678 28.7031 40.5738 28.5191C40.7808 28.3351 41.0968 28.3541 41.2798 28.5601L42.3168 29.7241C42.4308 29.8521 42.4718 30.0291 42.4238 30.1941L41.7348 32.5971C41.6748 32.8171 41.4748 32.9601 41.2568 32.9601Z" fill="black"/>
<path d="M39.133 41.2561C38.815 41.2561 38.502 41.1901 38.205 41.0341C37.96 40.9061 37.865 40.6041 37.993 40.3591C38.123 40.1151 38.428 40.0211 38.668 40.1481C39.697 40.6841 41.59 39.0471 42.171 38.4291C42.361 38.2281 42.677 38.2181 42.878 38.4081C43.079 38.5971 43.089 38.9131 42.899 39.1141C42.662 39.3681 40.83 41.2561 39.133 41.2561Z" fill="black"/>
<path d="M37.7529 52.418L32.4529 53.343C32.4529 53.343 32.5649 60.446 42.5349 61.343C52.5049 62.24 59.1999 52.305 59.1999 52.305L48.7299 51.036L37.7529 52.418Z" fill="#F48462"/>
<path d="M56.988 44.044C57.15 46.649 56.179 48.83 54.819 48.914C53.46 48.999 52.226 46.955 52.064 44.35C51.902 41.745 52.873 39.564 54.233 39.48C55.593 39.395 56.826 41.439 56.988 44.044Z" fill="#92B4EA"/>
<path d="M27.8519 88.3351C27.7189 88.3351 27.586 88.282 27.489 88.178C18.297 78.432 26.0209 68.5341 26.0999 68.4361C26.2729 68.2221 26.5879 68.1881 26.8019 68.3581C27.0179 68.5311 27.0529 68.8451 26.8809 69.0611C26.5809 69.4371 19.628 78.387 28.215 87.493C28.404 87.693 28.3959 88.0101 28.1939 88.1991C28.0979 88.2901 27.9749 88.3351 27.8519 88.3351Z" fill="#92B4EA"/>
</svg>
