<svg width="94" height="94" viewBox="0 0 94 94" fill="none" xmlns="http://www.w3.org/2000/svg">
<path d="M94.001 47.176C94.001 55.686 91.721 63.666 87.731 70.536C87.581 70.796 87.421 71.056 87.261 71.316C86.891 71.936 86.501 72.556 86.091 73.156C85.921 73.406 85.751 73.656 85.561 73.906C79.481 82.616 70.481 89.116 60.001 92.066C59.781 92.126 59.551 92.186 59.331 92.246C55.521 93.256 51.511 93.796 47.381 93.796C31.271 93.796 17.061 85.626 8.71098 73.196C7.92098 72.046 7.19098 70.846 6.52098 69.626C2.85098 62.966 0.760986 55.316 0.760986 47.176C0.760986 21.426 21.631 0.55603 47.381 0.55603C73.131 0.55603 94.001 21.426 94.001 47.176Z" fill="#E8E1EF"/>
<path d="M82.2299 56.688C82.3899 80.4881 58.6999 76.4881 58.6999 76.4881L36.2699 67.618C36.2699 67.618 13.7999 55.7381 28.5299 41.9881C28.5299 41.9881 23.3799 18.858 41.6199 14.218C41.6999 14.188 41.7799 14.168 41.8599 14.148C42.4599 14.008 43.0399 13.888 43.5999 13.808C60.4899 11.188 61.9399 33.918 61.9399 33.918C61.9399 33.918 82.0999 37.648 82.2299 56.688Z" fill="black"/>
<path d="M85.5609 73.91C79.4809 82.62 70.4809 89.12 60.0009 92.07C59.7809 92.13 59.5509 92.19 59.3309 92.25C55.5209 93.26 51.5109 93.8 47.3809 93.8C45.4509 93.8 43.5509 93.68 41.6809 93.46C40.1109 93.26 38.5609 92.99 37.0409 92.65C25.2809 89.99 15.2209 82.89 8.71094 73.2C14.9709 64.64 22.8209 58.16 28.1609 55.86C36.0609 52.46 48.5909 50.18 60.1609 53.49C60.1909 53.5 60.2309 53.5 60.2709 53.51C63.7509 54.51 67.1309 56.01 70.2809 58.14C77.0909 62.74 82.0509 68.08 85.5609 73.91Z" fill="#6876AA"/>
<path d="M38.874 45.357L38.876 45.628L39.104 50.731L39.266 54.732C39.266 54.732 39.954 56.337 44.612 56.035C50.855 55.606 51.837 52.25 51.837 52.25L52.103 42.87L50.211 43.231L38.874 45.357Z" fill="#F48462"/>
<path d="M38.876 45.628L39.104 50.731C42.137 50.363 47.658 49.049 49.889 44.278C50.06 43.89 50.174 43.541 50.211 43.251L38.896 45.551L38.876 45.628Z" fill="black"/>
<path d="M36.8971 21.204C36.8971 21.204 31.0921 34.491 33.1831 41.956C35.2751 49.421 42.0761 48.246 46.1451 46.803C50.2141 45.36 52.1031 42.865 52.1031 42.865C52.1031 42.865 55.9041 44.154 58.4461 40.619C60.9881 37.084 59.4231 33.025 57.2531 32.095C55.0831 31.165 52.5021 32.732 52.5021 32.732L54.5251 28.871C54.5251 28.871 46.0141 9.24601 36.8971 21.204Z" fill="#F48462"/>
<path d="M38.699 19.237C38.699 19.237 38.279 26.307 45.39 29.519C52.502 32.731 57.253 32.095 57.253 32.095L56.791 22.875L47.135 14.593L39.93 15.742L38.699 19.237Z" fill="black"/>
<path d="M52.021 30.692L52.048 34.718L55.628 31.186L52.021 30.692Z" fill="black"/>
<path d="M87.2601 71.3161C86.8901 71.9361 86.5001 72.5561 86.0901 73.1561C85.9201 73.4061 85.7501 73.6561 85.5601 73.9061C79.4801 82.6161 70.4801 89.1161 60.0001 92.0661C59.7801 92.1261 59.5501 92.1861 59.3301 92.2461L59.9701 53.4561C59.9701 53.4561 60.0401 53.4661 60.1601 53.4861C60.1901 53.4961 60.2301 53.4961 60.2701 53.5061C62.5701 53.8961 77.6401 56.8761 85.7301 68.7361C86.2801 69.5261 86.7801 70.3961 87.2601 71.3161Z" fill="#6876AA"/>
<path d="M35.2461 26.079C35.0331 26.079 34.8361 25.942 34.7691 25.728C34.6871 25.464 34.8341 25.184 35.0971 25.102L37.7451 24.274C38.0081 24.191 38.2891 24.338 38.3721 24.602C38.4541 24.866 38.3081 25.146 38.0441 25.228L35.3961 26.056C35.3461 26.072 35.2961 26.079 35.2461 26.079Z" fill="black"/>
<path d="M52.7729 38.955C52.6379 38.955 52.5029 38.901 52.4049 38.793C52.2179 38.59 52.2309 38.273 52.4339 38.087L56.5299 34.317C56.7329 34.129 57.0499 34.143 57.2369 34.346C57.4229 34.549 57.4109 34.866 57.2069 35.052L53.1109 38.822C53.0159 38.912 52.8949 38.955 52.7729 38.955Z" fill="black"/>
<path d="M56.9229 38.4591C56.8559 38.4591 56.7879 38.4451 56.7219 38.4171L54.2769 37.3441C54.0249 37.2331 53.9089 36.9381 54.0199 36.6851C54.1309 36.4331 54.4249 36.3181 54.6789 36.4281L57.1239 37.5011C57.3759 37.6121 57.4919 37.9071 57.3809 38.1601C57.2989 38.3471 57.1149 38.4591 56.9229 38.4591Z" fill="black"/>
<path d="M36.0651 32.781C36.0311 32.781 35.9971 32.777 35.9631 32.771C35.6921 32.715 35.5191 32.45 35.5751 32.18L36.0611 29.839L35.1081 28.74C34.9271 28.532 34.9491 28.215 35.1581 28.035C35.3671 27.853 35.6831 27.876 35.8631 28.085L36.9791 29.371C37.0821 29.489 37.1231 29.647 37.0911 29.8L36.5551 32.383C36.5051 32.619 36.2971 32.781 36.0651 32.781Z" fill="black"/>
<path d="M44.076 33.189C44.042 33.189 44.008 33.186 43.974 33.179C43.703 33.123 43.53 32.858 43.586 32.588L44.071 30.247L43.118 29.148C42.937 28.94 42.96 28.624 43.168 28.442C43.377 28.262 43.692 28.283 43.874 28.492L44.989 29.778C45.091 29.896 45.132 30.054 45.101 30.207L44.565 32.79C44.516 33.026 44.308 33.189 44.076 33.189Z" fill="black"/>
<path d="M37.649 38.6151C37.417 38.6151 37.21 38.4531 37.16 38.2181C36.268 33.9581 38.334 31.8101 38.422 31.7201C38.616 31.5231 38.932 31.5211 39.129 31.7161C39.325 31.9101 39.327 32.225 39.134 32.422C39.05 32.51 37.366 34.321 38.138 38.012C38.195 38.283 38.021 38.5471 37.751 38.6041C37.718 38.6121 37.683 38.6151 37.649 38.6151Z" fill="black"/>
<path d="M41.967 42.703C41.68 42.703 40.9941 42.57 39.5721 40.997C39.4021 40.809 39.3421 40.555 39.4081 40.317C39.4781 40.07 39.6731 39.876 39.9311 39.799C43.3501 38.776 43.8041 39.116 44.0211 39.281C44.1951 39.412 44.4591 39.728 44.2661 40.377C44.0341 41.157 42.9661 42.639 42.0541 42.7C42.0301 42.701 42.001 42.703 41.967 42.703ZM40.609 40.642C41.348 41.406 41.8391 41.7 41.9881 41.701C42.3401 41.653 43.2011 40.57 43.3201 40.073C43.0381 40.077 42.215 40.182 40.609 40.642Z" fill="black"/>
<path d="M24.7971 71.096C24.7461 71.155 19.9701 76.2761 20.8761 85.4831C20.5891 85.2981 20.3121 85.1031 20.0361 84.8991C19.9571 84.8481 19.8881 84.7861 19.8091 84.7251C19.2221 75.5841 24.0181 70.4731 24.0791 70.4041C24.2721 70.2071 24.5821 70.2031 24.7891 70.3861C24.9851 70.5791 24.9901 70.9 24.7971 71.096Z" fill="#92B4EA"/>
<path d="M45.231 56.88L41.681 93.46C40.111 93.26 38.561 92.99 37.041 92.65L41.901 57.72L45.231 56.88Z" fill="#92B4EA"/>
<path d="M39.1819 52.6581C39.1819 52.6581 34.4409 63.1501 35.5759 62.9861C36.7099 62.8221 43.6969 57.1411 43.6969 57.1411C43.6969 57.1411 48.2709 63.5691 49.8659 63.6881C51.4609 63.8071 51.9819 52.1841 51.9819 52.1841C51.9819 52.1841 50.7749 55.4711 44.8199 56.0281C38.8649 56.5851 39.1819 52.6581 39.1819 52.6581Z" fill="#E6F4FF"/>
</svg>
