<svg width="95" height="94" viewBox="0 0 95 94" fill="none" xmlns="http://www.w3.org/2000/svg">
<path d="M94.1812 47.176C94.1812 58.626 90.0511 69.116 83.2112 77.226C82.3512 78.246 81.4412 79.236 80.5012 80.176C78.9812 81.696 77.3512 83.116 75.6212 84.406C74.7812 85.046 73.9111 85.656 73.0211 86.236C72.9212 86.306 72.8212 86.366 72.7112 86.426C71.4511 87.246 70.1411 88.006 68.7911 88.686C68.4811 88.846 68.1712 89.006 67.8512 89.156C66.4012 89.856 64.9111 90.486 63.3911 91.036C61.3711 91.766 59.2912 92.366 57.1512 92.806C54.0512 93.456 50.8512 93.796 47.5612 93.796C46.1512 93.796 44.7512 93.736 43.3712 93.606C41.9312 93.476 40.5111 93.286 39.1111 93.016C38.3311 92.876 37.5611 92.716 36.8011 92.536C34.5811 92.016 32.4312 91.336 30.3512 90.496C28.5012 89.766 26.7111 88.916 24.9811 87.956C24.7811 87.846 24.5811 87.736 24.3911 87.616C23.2111 86.956 22.0712 86.246 20.9712 85.466C20.0212 84.816 19.0912 84.116 18.1912 83.376C18.0812 83.296 17.9812 83.216 17.8712 83.126C16.6012 82.066 15.3812 80.946 14.2212 79.766C13.8912 79.436 13.5711 79.096 13.2611 78.756C12.3711 77.796 11.5212 76.796 10.7212 75.766C9.93116 74.746 9.18114 73.696 8.48114 72.616C3.71114 65.296 0.931152 56.566 0.931152 47.176C0.931152 21.426 21.8112 0.55603 47.5612 0.55603C73.3112 0.55603 94.1812 21.426 94.1812 47.176Z" fill="#E8E1EF"/>
<path d="M59.9402 41.478L38.7602 39.338L37.7602 39.238L35.0702 38.968C35.0702 38.968 33.2302 32.298 34.9102 27.728C36.5902 23.168 40.5202 25.028 40.5202 25.028C40.5202 25.028 42.2702 23.528 45.4602 22.208C46.5302 21.768 47.7402 21.358 49.1002 21.028C50.5602 20.668 52.1902 20.408 53.9802 20.308C62.5002 19.838 59.7202 25.638 59.7202 25.638C59.7202 25.638 61.6102 26.978 62.3802 31.188C63.5202 37.408 59.9402 41.478 59.9402 41.478Z" fill="black"/>
<path d="M83.2102 77.226C82.3502 78.246 81.4402 79.236 80.5002 80.176C78.9802 81.696 77.3502 83.116 75.6202 84.406C74.7802 85.046 73.9102 85.656 73.0202 86.236C72.9202 86.306 72.8202 86.366 72.7102 86.426L72.9902 65.926C72.9902 65.926 77.8202 70.426 83.2102 77.226Z" fill="#F7B369"/>
<path d="M68.7901 88.6861C68.4801 88.8461 68.1701 89.0061 67.8501 89.1561C64.4901 90.7861 60.9001 92.0261 57.1501 92.8061C54.0501 93.4561 50.8501 93.7961 47.5601 93.7961C46.1501 93.7961 44.7501 93.7361 43.3701 93.6061C41.9301 93.4761 40.5101 93.2861 39.1101 93.0161C38.3301 92.8761 37.5601 92.7161 36.8001 92.5361C34.5801 92.0161 32.4301 91.3361 30.3501 90.4961L40.0701 57.5361C40.0701 57.5361 47.7591 53.1761 55.4831 57.0411C60.1211 59.3611 66.3401 76.0961 68.7901 88.6861Z" fill="#68B6D8"/>
<path d="M56.2412 57.296L41.4612 58.226C41.4612 58.226 39.9812 73.586 39.1112 93.016C38.3312 92.876 37.5612 92.716 36.8012 92.536C32.6112 91.546 28.6512 89.996 24.9812 87.956C24.7812 87.846 24.5812 87.736 24.3912 87.616C23.2112 86.956 22.0713 86.246 20.9713 85.466C20.0213 84.816 19.0913 84.116 18.1913 83.376C18.0813 83.296 17.9812 83.216 17.8712 83.126C16.6012 82.066 15.3813 80.946 14.2213 79.766C13.8913 79.436 13.5712 79.096 13.2612 78.756C13.5412 72.406 14.4112 67.676 16.1812 66.026C24.0412 58.716 43.5412 56.276 43.5412 56.276L52.6613 56.146C52.6613 56.146 54.1002 56.566 56.2412 57.296Z" fill="#F7B369"/>
<path d="M75.6211 84.406C74.7811 85.046 73.9111 85.656 73.0211 86.236C71.6611 87.126 70.2511 87.946 68.7911 88.686C68.4811 88.846 68.1711 89.006 67.8511 89.156C66.4011 89.856 64.9111 90.486 63.3911 91.036C63.3811 90.916 63.3931 90.792 63.3611 90.676C57.1141 68.259 55.4841 57.041 55.4841 57.041C61.1141 58.971 72.3611 63.346 74.2811 67.776C75.0101 69.466 75.4211 75.926 75.6211 84.406Z" fill="#F7B369"/>
<path d="M46.6761 25.617C46.6761 25.617 37.9721 6.18402 28.0351 16.057C19.7221 24.316 32.6151 37.045 40.0701 33.415C47.5251 29.784 46.6761 25.617 46.6761 25.617Z" fill="black"/>
<path d="M41.3352 48.755L41.7412 59.151C41.7412 59.151 43.7332 62.066 49.8332 62.323C54.3782 62.514 55.7212 60.132 55.7212 60.132L54.2682 51.078L43.1922 49.092L41.3352 48.755Z" fill="#F48462"/>
<path d="M41.3262 48.1211C41.3632 48.4041 41.4842 48.7351 41.6672 49.1121C44.1962 54.2141 52.4662 56.0551 55.0922 56.1871L54.2692 51.0771L41.3262 48.1211Z" fill="black"/>
<path d="M55.661 27.291C55.661 27.291 61.626 40.112 59.758 47.438C57.89 54.764 51.233 53.775 47.232 52.461C43.231 51.148 41.333 48.758 41.333 48.758C41.333 48.758 37.657 50.102 35.097 46.714C32.537 43.326 33.97 39.333 36.065 38.376C38.16 37.419 40.712 38.888 40.712 38.888L38.651 35.17C38.651 35.17 46.497 15.842 55.661 27.291Z" fill="#F48462"/>
<path d="M40.7122 38.888C40.7122 38.888 46.2992 39.934 50.0832 33.68C53.8672 27.426 53.4762 24.885 53.4762 24.885L57.4221 31.232C57.4221 31.232 58.2221 26.782 56.4081 23.977C54.5931 21.173 52.7592 21.785 52.7592 21.785L40.5172 25.026L37.4202 34.918L40.7122 38.888Z" fill="black"/>
<path d="M55.444 43.852C55.398 43.852 55.351 43.846 55.304 43.832C55.038 43.755 54.886 43.477 54.963 43.212C55.649 40.853 53.845 38.343 53.826 38.318C53.664 38.095 53.713 37.782 53.935 37.619C54.158 37.456 54.47 37.505 54.634 37.728C54.72 37.847 56.744 40.665 55.923 43.491C55.861 43.71 55.661 43.852 55.444 43.852Z" fill="black"/>
<path d="M40.2561 45.061C40.1261 45.061 39.9961 45.011 39.8981 44.91L36.3161 41.24C36.1231 41.043 36.1271 40.726 36.3241 40.533C36.5231 40.341 36.8391 40.344 37.0311 40.542L40.6131 44.212C40.8061 44.409 40.8021 44.726 40.6051 44.919C40.5081 45.013 40.3821 45.061 40.2561 45.061Z" fill="black"/>
<path d="M36.5142 44.1241C36.2752 44.1241 36.0632 43.9511 36.0222 43.7071C35.9762 43.4351 36.1602 43.1771 36.4322 43.1311L38.8602 42.7211C39.1282 42.6821 39.3902 42.8591 39.4362 43.1311C39.4822 43.4031 39.2982 43.6611 39.0262 43.7071L36.5982 44.1171C36.5692 44.1221 36.5422 44.1241 36.5142 44.1241Z" fill="black"/>
<path d="M57.7911 33.2061C57.7651 33.2061 57.7381 33.2041 57.7111 33.2001L55.4041 32.8321C55.1321 32.7891 54.9461 32.5321 54.9891 32.2601C55.0331 31.9871 55.2861 31.8001 55.5621 31.8451L57.8691 32.2131C58.1411 32.2571 58.3271 32.5131 58.2841 32.7851C58.2441 33.0311 58.0321 33.2061 57.7911 33.2061Z" fill="black"/>
<path d="M48.2471 34.851C48.0671 34.851 47.8931 34.754 47.8041 34.583C47.6761 34.338 47.7711 34.036 48.0151 33.908L51.7621 31.945C52.0041 31.817 52.3091 31.909 52.4381 32.156C52.5661 32.401 52.4711 32.703 52.2271 32.831L48.4801 34.794C48.4051 34.833 48.3251 34.851 48.2471 34.851Z" fill="black"/>
<path d="M57.8641 38.5251C57.6531 38.5251 57.4571 38.3901 57.3881 38.1781L56.6371 35.8491C56.5851 35.6901 56.6171 35.5151 56.7211 35.3851L57.4271 34.4961C57.6001 34.2801 57.9151 34.2461 58.1291 34.4151C58.3461 34.5871 58.3821 34.9011 58.2101 35.1181L57.6701 35.7971L58.3391 37.8711C58.4241 38.1341 58.2791 38.4151 58.0171 38.5001C57.9671 38.5171 57.9151 38.5251 57.8641 38.5251Z" fill="black"/>
<path d="M50.4222 39.245C50.2112 39.245 50.0152 39.11 49.9462 38.898L49.1952 36.569C49.1422 36.406 49.1761 36.228 49.2871 36.096L50.2632 34.924C50.4402 34.713 50.7552 34.685 50.9672 34.86C51.1792 35.037 51.2072 35.352 51.0312 35.564L50.2322 36.524L50.8982 38.591C50.9832 38.854 50.8381 39.135 50.5761 39.22C50.5251 39.237 50.4732 39.245 50.4222 39.245Z" fill="black"/>
<path d="M53.6172 47.2921C51.9712 47.2921 50.1672 45.5521 49.9292 45.3151C49.7332 45.1201 49.7332 44.8041 49.9272 44.6081C50.1222 44.4121 50.4392 44.4121 50.6342 44.6061C51.2222 45.1891 53.1133 46.7301 54.1053 46.1721C54.3413 46.0371 54.6492 46.1201 54.7872 46.3601C54.9232 46.6011 54.8382 46.9061 54.5982 47.0421C54.2882 47.2181 53.9562 47.2921 53.6172 47.2921Z" fill="black"/>
<path d="M20.9702 85.466C20.0202 84.816 19.0902 84.116 18.1902 83.376C18.0802 83.296 17.9802 83.216 17.8702 83.126C16.6002 82.066 15.3802 80.946 14.2202 79.766C12.9802 78.496 11.8102 77.166 10.7202 75.766C9.93021 74.746 9.18022 73.696 8.48022 72.616C14.7602 66.606 19.9602 63.306 19.9602 63.306L20.9702 85.466Z" fill="#F7B369"/>
<path d="M50.5202 62.831C45.4432 62.831 41.3852 59.89 41.2142 59.764C40.9912 59.601 40.9432 59.288 41.1072 59.066C41.2722 58.843 41.5842 58.796 41.8062 58.959C41.8452 58.988 45.7802 61.832 50.5232 61.832C50.5632 61.832 50.6022 61.831 50.6422 61.831C55.0282 61.786 55.7292 59.342 55.7562 59.238C55.8262 58.973 56.0952 58.818 56.3642 58.88C56.6302 58.948 56.7912 59.216 56.7252 59.482C56.6922 59.616 55.8532 62.778 50.6512 62.831C50.6072 62.83 50.5642 62.831 50.5202 62.831Z" fill="white"/>
</svg>
