<svg width="94" height="94" viewBox="0 0 94 94" fill="none" xmlns="http://www.w3.org/2000/svg">
<path d="M93.3611 47.176C93.3611 56.386 90.6911 64.976 86.0711 72.216C82.7411 77.436 78.4011 81.946 73.3211 85.476C70.6011 87.366 67.6711 88.976 64.5711 90.266C59.0811 92.536 53.0611 93.796 46.7411 93.796C46.3811 93.796 46.0111 93.796 45.6411 93.786C34.4211 93.526 24.1811 89.306 16.2711 82.466C14.8911 81.276 13.5911 80.006 12.3611 78.666C4.75108 70.376 0.111084 59.316 0.111084 47.176C0.111084 21.426 20.9911 0.55603 46.7411 0.55603C72.4811 0.55603 93.3611 21.426 93.3611 47.176Z" fill="#E8E1EF"/>
<path d="M73.3201 85.476C70.6001 87.366 67.6701 88.976 64.5701 90.266C59.0801 92.536 53.0601 93.796 46.7401 93.796C46.3801 93.796 46.0101 93.796 45.6401 93.786C34.4201 93.526 24.1801 89.306 16.2701 82.466C14.8901 81.276 13.5901 80.006 12.3601 78.666C15.6401 71.556 23.2501 58.146 35.1501 54.926C35.2901 54.886 35.4301 54.856 35.5601 54.816C49.3301 51.336 68.0101 54.586 71.7301 57.376C73.2601 58.636 73.5301 71.146 73.3201 85.476Z" fill="#92B4EA"/>
<path d="M38.7301 31.161C38.7301 31.161 31.2261 21.881 34.3751 18.199C37.5241 14.517 42.3911 18.199 42.3911 18.199C42.3911 18.199 42.6601 13.842 47.5141 14.292C52.3691 14.742 55.2941 19.915 55.2941 19.915C55.2941 19.915 59.5651 15.641 62.4901 19.915C65.4141 24.189 63.3901 31.161 63.3901 31.161C63.3901 31.161 66.7641 30.662 65.8641 34.623C64.9641 38.584 59.6581 42.667 59.6581 42.667L38.7301 31.161Z" fill="black"/>
<path d="M55.1541 45.772L55.2951 56.237C55.2951 56.237 53.4481 59.271 47.3331 59.851C42.7771 60.283 41.1611 59.274 41.1611 59.274L41.7251 53.965L42.2821 48.788L53.3041 46.207L55.1541 45.772Z" fill="#F48462"/>
<path d="M53.3051 46.207C53.2821 46.493 53.1781 46.832 53.0151 47.221C50.7441 52.48 44.3571 53.694 41.7261 53.965L42.2831 48.788L53.3051 46.207Z" fill="black"/>
<path d="M39.627 24.9651C39.627 24.9651 34.311 38.1611 36.575 45.4221C38.839 52.6831 45.475 51.3381 49.425 49.8071C53.375 48.2761 55.156 45.7751 55.156 45.7751C55.156 45.7751 58.92 46.9311 61.313 43.3921C63.706 39.8531 62.055 35.9171 59.9 35.0661C57.745 34.2161 55.258 35.8261 55.258 35.8261L57.132 31.9821C57.132 31.9821 48.228 12.9781 39.627 24.9651Z" fill="#F48462"/>
<path d="M55.7162 41.554C55.5642 41.554 55.4122 41.484 55.3142 41.351C55.1502 41.129 55.1972 40.816 55.4182 40.652L59.3612 37.735C59.5842 37.572 59.8962 37.617 60.0612 37.84C60.2252 38.062 60.1782 38.375 59.9572 38.539L56.0142 41.456C55.9242 41.523 55.8192 41.554 55.7162 41.554Z" fill="black"/>
<path d="M60.0131 41.438C59.9741 41.438 59.9351 41.434 59.8951 41.424L56.7791 40.667C56.5111 40.602 56.3461 40.332 56.4111 40.063C56.4761 39.795 56.7441 39.629 57.0151 39.695L60.1311 40.452C60.3991 40.517 60.5641 40.787 60.4991 41.056C60.4431 41.284 60.2381 41.438 60.0131 41.438Z" fill="black"/>
<path d="M48.1172 31.117C47.9122 31.117 47.7192 30.989 47.6462 30.785C46.9512 28.834 45.2812 29.062 45.0892 29.091C44.8212 29.135 44.5592 28.957 44.5112 28.686C44.4632 28.415 44.6422 28.157 44.9122 28.107C45.8332 27.936 47.7892 28.21 48.5872 30.449C48.6802 30.709 48.5442 30.995 48.2842 31.088C48.2302 31.108 48.1732 31.117 48.1172 31.117Z" fill="black"/>
<path d="M38.3041 30.095C38.1621 30.095 38.0221 30.035 37.9231 29.918C37.7441 29.708 37.7701 29.392 37.9811 29.213C38.4491 28.816 39.6932 27.759 40.2602 28.406C40.4432 28.613 40.4231 28.929 40.2151 29.112C40.0821 29.229 39.9041 29.262 39.7461 29.217C39.6391 29.251 39.3142 29.393 38.6272 29.976C38.5332 30.056 38.4181 30.095 38.3041 30.095Z" fill="black"/>
<path d="M40.2011 40.0271C40.0511 40.0271 39.9021 39.9591 39.8041 39.8301C38.0961 37.5911 41.3711 34.0581 41.5121 33.9091C41.7021 33.7071 42.0171 33.6991 42.2181 33.8871C42.4191 34.0761 42.4301 34.3921 42.2401 34.5941C41.4471 35.4411 39.6051 37.9231 40.5981 39.2241C40.7661 39.4441 40.7231 39.7571 40.5041 39.9251C40.4141 39.9941 40.3081 40.0271 40.2011 40.0271Z" fill="black"/>
<path d="M39.347 35.3551C39.323 35.3551 39.299 35.3541 39.275 35.3501C39.003 35.3111 38.812 35.0581 38.851 34.7841L39.204 32.3211C39.244 32.0471 39.498 31.8581 39.77 31.8971C40.042 31.9361 40.233 32.1891 40.194 32.4631L39.841 34.9261C39.805 35.1751 39.591 35.3551 39.347 35.3551Z" fill="black"/>
<path d="M46.5601 35.3651C46.2521 35.3461 46.0431 35.1091 46.0611 34.8331L46.2191 32.3501C46.2371 32.0761 46.4331 31.8771 46.7501 31.8831C47.0251 31.9011 47.2341 32.1381 47.2171 32.4141L47.0591 34.8971C47.0421 35.1621 46.8211 35.3651 46.5601 35.3651Z" fill="black"/>
<path d="M38.565 27.9371C38.565 27.9371 39.673 25.8181 42.284 25.7651C44.895 25.7121 46.444 27.5301 46.444 27.5301C46.444 27.5301 45.358 31.9421 48.94 34.2291C52.522 36.5161 55.26 35.8261 55.26 35.8261L57.823 34.8741L59.661 31.0861L52.104 23.1591L42.394 18.2001L37.541 22.7271L38.565 27.9371Z" fill="black"/>
<path d="M44.3151 44.252C43.1451 44.252 42.1741 43.219 42.1301 43.169C42.0141 43.043 41.9702 42.866 42.0152 42.7C42.0592 42.534 42.1862 42.403 42.3512 42.352L46.1241 41.192C46.3021 41.138 46.4972 41.187 46.6272 41.32C46.7582 41.453 46.8041 41.648 46.7461 41.826C46.2911 43.213 45.6111 44.015 44.7241 44.208C44.5861 44.238 44.4491 44.252 44.3151 44.252ZM43.5631 43.026C43.8571 43.189 44.1961 43.302 44.5131 43.231C44.8711 43.152 45.1592 42.845 45.3812 42.467L43.5631 43.026Z" fill="black"/>
<path d="M86.0701 72.216C82.7401 77.436 78.4001 81.946 73.3201 85.476C70.6001 87.366 67.6701 88.976 64.5701 90.266L71.7301 57.376C72.2201 57.716 79.8611 63.106 86.0701 72.216Z" fill="#92B4EA"/>
<path d="M56.2951 66.59C53.5781 66.59 48.3301 62.505 46.5831 61.081C44.7381 62.814 40.0611 66.989 38.3561 66.399C38.0471 66.292 37.8051 66.062 37.6591 65.735C36.9171 64.077 38.7291 59.569 39.1001 58.682C39.1981 58.449 39.4561 58.325 39.6991 58.395C39.7331 58.405 43.2251 59.39 47.2151 59.094C51.8081 58.753 56.1751 55.494 56.2191 55.461C56.3501 55.361 56.5211 55.331 56.6761 55.386C56.8311 55.437 56.9521 55.561 56.9991 55.718C57.4641 57.284 59.6561 65.158 57.1191 66.419C56.8841 66.536 56.6061 66.59 56.2951 66.59ZM46.9801 60.113C50.2231 62.793 55.3061 66.205 56.6741 65.523C57.9121 64.909 57.1981 60.194 56.2321 56.674C54.8421 57.608 51.2021 59.801 47.2901 60.092C47.1861 60.1 47.0821 60.106 46.9801 60.113ZM39.8591 59.47C39.0881 61.411 38.1621 64.412 38.5721 65.327C38.6191 65.432 38.6641 65.448 38.6821 65.455C39.5161 65.749 43.1581 62.956 46.1151 60.148C43.2361 60.209 40.8181 59.703 39.8591 59.47Z" fill="#F7B369"/>
</svg>
